<?xml version="1.0" standalone="no"?>
<!DOCTYPE svg PUBLIC "-//W3C//DTD SVG 20010904//EN"
 "http://www.w3.org/TR/2001/REC-SVG-20010904/DTD/svg10.dtd">
<svg version="1.0" xmlns="http://www.w3.org/2000/svg"
 width="985.000000pt" height="253.000000pt" viewBox="0 0 985.000000 253.000000"
 preserveAspectRatio="xMidYMid meet">

<g transform="translate(0.000000,253.000000) scale(0.100000,-0.100000)"
fill="#000000" stroke="none">
<path d="M6040 2518 c-43 -14 -581 -542 -611 -600 -21 -42 -26 -127 -8 -160
10 -19 33 1 288 255 152 151 290 282 308 291 36 18 128 21 170 5 15 -5 154
-136 308 -290 154 -153 283 -279 287 -279 15 0 25 91 16 138 -10 44 -27 64
-291 329 -155 156 -296 290 -316 299 -45 21 -106 26 -151 12z"/>
<path d="M5827 1979 c-97 -23 -182 -94 -226 -188 l-26 -56 0 -285 0 -285 33
-67 c37 -76 82 -120 162 -157 l55 -26 290 0 290 0 58 30 c73 36 140 109 166
181 19 50 21 77 21 324 0 247 -2 274 -20 324 -28 73 -99 147 -175 183 l-60 28
-265 2 c-146 1 -282 -3 -303 -8z m263 -404 l0 -126 -122 3 -123 3 -3 109 c-1
61 0 116 2 123 4 10 36 13 126 13 l120 0 0 -125z m290 0 l0 -125 -125 0 -125
0 0 125 0 125 125 0 125 0 0 -125z m-342 -165 l52 0 0 -125 0 -126 -122 3
-123 3 0 120 0 120 48 3 c31 2 50 8 54 18 5 13 8 13 23 -1 10 -9 36 -15 68
-15z m342 -125 l0 -125 -125 0 -125 0 0 125 0 125 125 0 125 0 0 -125z"/>
<path d="M0 740 l0 -50 1148 2 c631 1 1222 4 1314 6 l167 3 4 37 4 37 1 -37
c3 -50 19 -49 24 2 l3 39 -175 3 c-96 2 -696 4 -1332 6 l-1158 3 0 -51z"/>
<path d="M7415 780 c-132 -3 -234 -7 -227 -8 7 -1 12 -17 12 -35 l0 -34 272
-6 c149 -4 745 -7 1325 -7 l1053 0 0 50 0 50 -1097 -2 c-604 -1 -1206 -5
-1338 -8z"/>
</g>
</svg>
